<svg width="24" height="25" viewBox="0 0 24 25" fill="none" xmlns="http://www.w3.org/2000/svg">
<g id="LinkedIn Icon" clip-path="url(#clip0_1_39)">
<path id="Vector" d="M7.2 10.1V18.1M16.8 18.1V14.1C16.8 13.2513 16.4629 12.4374 15.8627 11.8372C15.2626 11.2371 14.4487 10.9 13.6 10.9C12.7513 10.9 11.9374 11.2371 11.3373 11.8372C10.7371 12.4374 10.4 13.2513 10.4 14.1V18.1V10.1M6.4 7.69999H8M2.4 1.29999H21.6C22.0243 1.29999 22.4313 1.46856 22.7314 1.76862C23.0314 2.06868 23.2 2.47564 23.2 2.89999V22.1C23.2 22.5243 23.0314 22.9313 22.7314 23.2314C22.4313 23.5314 22.0243 23.7 21.6 23.7H2.4C1.97566 23.7 1.56869 23.5314 1.26863 23.2314C0.968574 22.9313 0.800003 22.5243 0.800003 22.1V2.89999C0.800003 2.47564 0.968574 2.06868 1.26863 1.76862C1.56869 1.46856 1.97566 1.29999 2.4 1.29999Z" stroke="#222222" stroke-width="1.6"/>
</g>
<defs>
<clipPath id="clip0_1_39">
<rect width="24" height="24" fill="white" transform="translate(0 0.5)"/>
</clipPath>
</defs>
</svg>
