<svg width="22" height="23" viewBox="0 0 22 23" fill="none" xmlns="http://www.w3.org/2000/svg">
<g id="Github Icon" clip-path="url(#clip0_1_43)">
<path id="Vector" d="M15 21.527V18.657C15.0375 18.1801 14.9731 17.7008 14.811 17.2508C14.6489 16.8008 14.3929 16.3904 14.06 16.047C17.2 15.697 20.5 14.507 20.5 9.04698C20.4997 7.6508 19.9627 6.30817 19 5.29698C19.4559 4.07548 19.4236 2.72533 18.91 1.52698C18.91 1.52698 17.73 1.17697 15 3.00698C12.708 2.3858 10.292 2.3858 8 3.00698C5.27 1.17697 4.09 1.52698 4.09 1.52698C3.57638 2.72533 3.54414 4.07548 4 5.29698C3.03013 6.31568 2.49252 7.67044 2.5 9.07698C2.5 14.497 5.8 15.687 8.94 16.077C8.611 16.4169 8.35726 16.8224 8.19531 17.2669C8.03335 17.7114 7.96681 18.185 8 18.657V21.527" stroke="#222222" stroke-width="1.5" stroke-linecap="round" stroke-linejoin="round"/>
<path id="Vector_2" d="M8 19.527C5 20.5 2.5 19.527 1 16.527" stroke="#222222" stroke-width="1.5" stroke-linecap="round" stroke-linejoin="round"/>
</g>
<defs>
<clipPath id="clip0_1_43">
<rect width="22" height="22" fill="white" transform="translate(0 0.5)"/>
</clipPath>
</defs>
</svg>
