<svg width="24" height="24" viewBox="0 0 24 24" fill="none" xmlns="http://www.w3.org/2000/svg">
<g id="Github Icon" clip-path="url(#clip0_1_49)">
<path id="Vector" d="M16.3636 22.9385V19.8076C16.4045 19.2873 16.3343 18.7645 16.1575 18.2736C15.9806 17.7826 15.7013 17.3349 15.3382 16.9603C18.7636 16.5785 22.3636 15.2803 22.3636 9.32393C22.3633 7.80082 21.7775 6.33614 20.7273 5.23302C21.2246 3.90048 21.1894 2.42758 20.6291 1.12029C20.6291 1.12029 19.3418 0.738471 16.3636 2.73484C13.8633 2.05719 11.2276 2.05719 8.72727 2.73484C5.74909 0.738471 4.46182 1.12029 4.46182 1.12029C3.9015 2.42758 3.86633 3.90048 4.36364 5.23302C3.3056 6.34433 2.71911 7.82225 2.72727 9.35666C2.72727 15.2694 6.32727 16.5676 9.75273 16.993C9.39382 17.3638 9.11701 17.8062 8.94034 18.2911C8.76365 18.776 8.69106 19.2927 8.72727 19.8076V22.9385" stroke="#222222" stroke-width="1.5" stroke-linecap="round" stroke-linejoin="round"/>
<path id="Vector_2" d="M8.72728 20.7567C5.45455 21.8182 2.72728 20.7567 1.09091 17.484" stroke="#222222" stroke-width="1.5" stroke-linecap="round" stroke-linejoin="round"/>
</g>
<defs>
<clipPath id="clip0_1_49">
<rect width="24" height="24" fill="white"/>
</clipPath>
</defs>
</svg>
