<svg width="24" height="24" viewBox="0 0 24 24" fill="none" xmlns="http://www.w3.org/2000/svg">
<g id="LinkedIn Icon" clip-path="url(#clip0_1_54)">
<path id="Vector" d="M7.2 9.60005V17.6001M16.8 17.6001V13.6001C16.8 12.7514 16.4629 11.9375 15.8627 11.3373C15.2626 10.7372 14.4487 10.4001 13.6 10.4001C12.7513 10.4001 11.9374 10.7372 11.3373 11.3373C10.7371 11.9375 10.4 12.7514 10.4 13.6001V17.6001V9.60005M6.4 7.20005H8M2.4 0.800049H21.6C22.0243 0.800049 22.4313 0.96862 22.7314 1.26868C23.0314 1.56874 23.2 1.9757 23.2 2.40005V21.6001C23.2 22.0244 23.0314 22.4314 22.7314 22.7315C22.4313 23.0315 22.0243 23.2001 21.6 23.2001H2.4C1.97566 23.2001 1.56869 23.0315 1.26863 22.7315C0.968574 22.4314 0.800003 22.0244 0.800003 21.6001V2.40005C0.800003 1.9757 0.968574 1.56874 1.26863 1.26868C1.56869 0.96862 1.97566 0.800049 2.4 0.800049Z" stroke="#222222" stroke-width="1.6"/>
</g>
<defs>
<clipPath id="clip0_1_54">
<rect width="24" height="24" fill="white"/>
</clipPath>
</defs>
</svg>
